# xmcd CD database file
#
# Track frame offsets:
#	150
#	30582
#	68022
#	107399
#	153972
#	174873
#
# Disc length: 2649 seconds
#
# Revision: 0
# Processed by: cddbd v1.5.2PL0 Copyright (c) Steve Scherf et al.
# Submitted via: CDex 1.70beta2
#
DISCID=370a5706
DTITLE=The Chris Zimmer 5 - live at 2SE
DYEAR=1998
DGENRE=Jazz
TTITLE0=chicken
TTITLE1=who's making love
TTITLE2=tough talk
TTITLE3=rise
TTITLE4=the world is a ghetto
TTITLE5=chitlins con carne
EXTD=YEAR: 1998
EXTT0=
EXTT1=
EXTT2=
EXTT3=
EXTT4=
EXTT5=
PLAYORDER=
